# xmcd
#
# Track frame offsets:
#	150
#	15651
#	35428
#	48955
#	67057
#	79753
#	101680
#	114211
#	128886
#	143957
#	163726
#
# Disc length: 2436 seconds
#
# Revision: 1
# Processed by: cddbd v1.5.1PL2 Copyright (c) Steve Scherf et al.
# Submitted via: audiograbber 1.81.03
#
DISCID=9009820b
DTITLE=TJ McFarland - Rosenbum's Gin
DYEAR=2005
DGENRE=Country
TTITLE0=You Loved Me When
TTITLE1=Bullhorns On A Cadillac
TTITLE2=Emmy
TTITLE3=Wherever's After Crazy
TTITLE4=Ride This Train
TTITLE5=Rosenbum's Gin
TTITLE6=They
TTITLE7=Sweet Little Melody Jane
TTITLE8=Getaway
TTITLE9=Marilyn's Eyes
TTITLE10=Out Of The Blue
EXTD=
EXTT0=
EXTT1=
EXTT2=
EXTT3=
EXTT4=
EXTT5=
EXTT6=
EXTT7=
EXTT8=
EXTT9=
EXTT10=
PLAYORDER=
